# xmcd
#
# Track frame offsets: 
#        150
#        14445
#        26731
#        38778
#        55081
#        64034
#        77212
#        93021
#        104876
#        122247
#        135560
#        148631
#        165116
#        182008
#        194482
#
# Disc length: 2827 seconds
#
# Revision: 0
# Processed by: cddbd v1.5PL3 Copyright (c) Steve Scherf et al.
# Submitted via: ExactAudioCopy v0.95a4
#
DISCID=ca0b090f
DTITLE=John Williamson - Laugh Along With John Williamson
DYEAR=1900
DGENRE=Country
TTITLE0=Old Man Emu
TTITLE1=Crocodile Roll
TTITLE2=Budgie Song
TTITLE3=Bill The Cat
TTITLE4=Little Piss Piddle
TTITLE5=Cracker Night
TTITLE6=Christmas Photo
TTITLE7=The Shed
TTITLE8=Murrumbidgee Madness
TTITLE9=On Our Selection
TTITLE10=Bush Telegraph
TTITLE11=Dad's Flowers
TTITLE12=Vasectomy Song
TTITLE13=Bush Town
TTITLE14=Old Farts in Caravan Parks
EXTD=
EXTT0=
EXTT1=
EXTT2=
EXTT3=
EXTT4=
EXTT5=
EXTT6=
EXTT7=
EXTT8=
EXTT9=
EXTT10=
EXTT11=
EXTT12=
EXTT13=
EXTT14=
PLAYORDER=
